<?xml version="1.0" encoding="utf-8"?>
<!-- Generator: Adobe Illustrator 19.1.0, SVG Export Plug-In . SVG Version: 6.00 Build 0)  -->
<svg version="1.1" id="Layer_1" xmlns="http://www.w3.org/2000/svg" xmlns:xlink="http://www.w3.org/1999/xlink" x="0px" y="0px"
	 viewBox="0 0 76 76" style="enable-background:new 0 0 76 76;" xml:space="preserve">
<style type="text/css">
	.st0{fill:none;stroke:#878787;stroke-miterlimit:10;}
	.st1{fill:#999999;}
	.st2{fill:#EA7103;stroke:#EA7103;stroke-miterlimit:10;}
	.st3{fill:#231F20;}
	.st4{fill:none;stroke:#878787;stroke-width:5;stroke-miterlimit:10;}
	.st5{fill:#FFFFFF;}
	.st6{fill:none;stroke:#00CCFF;stroke-width:0.5;stroke-miterlimit:10;}
	.st7{fill:#33CCCC;}
	.st8{fill:#FF6600;}
	.st9{fill:#99CC33;}
	.st10{fill:#010002;}
	.st11{fill:#030104;}
	.st12{fill:none;stroke:#000000;stroke-width:2;stroke-miterlimit:10;}
	.st13{fill:none;stroke:#FF6600;stroke-width:2;stroke-miterlimit:10;}
	.st14{fill:#020202;}
	.st15{fill:#D5D5D5;}
</style>
<g>
	<g>
		<g>
			<g>
				<path class="st8" d="M55.7,20H20.4c-1.9,0-3.4,1.6-3.4,3.5v23c0,1.9,1.5,3.5,3.4,3.5h11.4l-2.2,4.8c-0.2,0.5-0.2,1.1,0.1,1.5
					c0.3,0.5,0.8,0.7,1.3,0.7h14c0,0,0,0,0,0c0.9,0,1.6-0.7,1.6-1.6c0-0.3-0.1-0.5-0.2-0.7L44.3,50h11.4c1.9,0,3.3-1.6,3.3-3.5v-23
					C59,21.6,57.6,20,55.7,20z M56,46.6c0,0.2-0.2,0.4-0.4,0.4H20.4c-0.2,0-0.4-0.2-0.4-0.4V23.4c0-0.2,0.2-0.4,0.4-0.4h35.3
					c0.2,0,0.4,0.2,0.4,0.4V46.6z"/>
				<path class="st8" d="M42.9,27.6c-0.1-0.1-0.3-0.1-0.4,0l-1.7,1.7c-0.1,0.1-0.1,0.3,0,0.4l2.4,2.4c0.1,0.1,0.1,0.1,0.2,0.1
					c0.1,0,0.2,0,0.2-0.1l1.7-1.7c0.1-0.1,0.1-0.3,0-0.4L42.9,27.6z"/>
				<path class="st8" d="M32.4,38.3c-0.1-0.1-0.2-0.1-0.3-0.1c-0.1,0-0.2,0.1-0.2,0.2l-1.2,3.5c0,0.1,0,0.2,0.1,0.3
					c0.1,0.1,0.1,0.1,0.2,0.1c0,0,0.1,0,0.1,0l3.5-1.2c0.1,0,0.2-0.1,0.2-0.2c0-0.1,0-0.2-0.1-0.3L32.4,38.3z"/>
				<path class="st8" d="M41.2,36.6c0.2-0.1,0.3-0.2,0.3-0.4c0-0.2,0-0.3-0.1-0.5c-0.2-0.2-0.4-0.5-0.6-0.7l1.9-1.9
					c0.1-0.1,0.1-0.1,0.1-0.2c0-0.1,0-0.2-0.1-0.2l-2.4-2.4c-0.1-0.1-0.3-0.1-0.4,0l-1.9,1.9c-1.2-1.2-2.5-2.2-3.6-3
					c-0.8-0.6-2.2-1.5-3-1.5c-0.1,0-0.3,0.1-0.4,0.2c-0.1,0.1-0.2,0.2-0.2,0.4c0,0.5,0.5,1.5,1.3,2.7c0.8,1.2,1.9,2.5,3.2,3.9
					l-2.4,2.4c-0.1,0.1-0.1,0.3,0,0.4l2.4,2.4c0.1,0.1,0.1,0.1,0.2,0.1c0.1,0,0.2,0,0.2-0.1l2.5-2.5c0.2,0.2,0.4,0.4,0.6,0.6
					c0.1,0.1,0.2,0.1,0.3,0.1c0,0,0.1,0,0.1,0c0.2,0,0.3-0.1,0.4-0.3c0.1-0.2,0.3-0.5,0.6-0.7C40.5,37,40.8,36.8,41.2,36.6z"/>
				<path class="st8" d="M42.5,37.1c-0.6,0-1.2,0.3-1.7,0.8c-0.6,0.6-0.9,1.2-0.8,1.8c0.1,0.6,0.6,1.1,1.3,1.5
					c0.6,0.3,1.2,0.4,1.7,0.5c0.5,0.1,1,0.2,1.5,0.5c0.1,0.1,0.2,0.1,0.3,0.1c0.1,0,0.1,0,0.2,0c0.2-0.1,0.3-0.2,0.3-0.4
					c0.2-1.4-0.1-2.7-0.8-3.5C44,37.5,43.3,37.1,42.5,37.1z"/>
			</g>
		</g>
	</g>
</g>
<g>
	<path class="st8" d="M37.6,74.3C17.6,74.3,1.3,58,1.3,38c0-20,16.3-36.3,36.3-36.3S73.9,18,73.9,38C73.9,58,57.6,74.3,37.6,74.3z
		 M37.6,3.7C18.7,3.7,3.3,19.1,3.3,38s15.4,34.3,34.3,34.3S71.9,56.9,71.9,38S56.5,3.7,37.6,3.7z"/>
</g>
</svg>
